:FULLY-SPECIFIED
:FORCE-ALL-JOINTS-BE-3DOF
:DEGREES
102
root -1.603 16.3467 -36.0336 3.78769 27.4449 0.9693
lfemur -13.6734 -1.93074 -11.3075
ltibia 41.7524 -0 0
lfoot -20.9339 13.212 -0.382584
ltoes -20.3726 0 0
rfemur -29.9711 -1.41158 13.232
rtibia 45.7781 -0 0
rfoot -15.7005 1.10612 0.565462
rtoes -17.6052 0 0
lowerback 10.4869 1.48126 -4.62133
upperback -2.30965 1.51419 1.50227
thorax -8.31443 1.00993 4.13432
lowerneck -4.73198 -3.43313 -5.78568
upperneck 5.1092 -4.48001 4.87903
head 2.78375 -2.19296 2.45968
lclavicle -9.16312e-16 -6.07505e-15 1.69785e-31
lhumerus -17.3758 -18.857 92.2897
lradius 34.2866 -0 0
lwrist -26.0572 0 0
lhand -27.8011 33.5994 0.0710889
lfingers 7.12502 -0 0
lthumb -1.19387 63.5708 0.0687131
rclavicle -9.16312e-16 -6.07505e-15 1.69785e-31
rhumerus -22.1102 12.8517 -78.7308
rradius 59.9746 -0 0
rwrist -11.1903 0 0
rhand 11.4983 -21.2221 3.10433
rfingers 7.12502 -0 0
rthumb 20.4963 -66.2051 -4.06237
103
root -1.5896 16.342 -36.0312 3.79791 27.7206 1.01035
lfemur -13.6295 -1.91016 -11.3457
ltibia 41.7932 -0 0
lfoot -20.9651 13.2757 -0.384613
ltoes -20.3153 0 0
rfemur -30.0781 -1.42842 13.2186
rtibia 45.8317 -0 0
rfoot -15.6264 1.14573 0.568465
rtoes -17.5713 0 0
lowerback 10.5214 1.47142 -4.64787
upperback -2.30145 1.49634 1.50442
thorax -8.32327 1.00271 4.15554
lowerneck -4.73242 -3.42711 -5.77523
upperneck 5.11314 -4.47176 4.86326
head 2.78387 -2.18908 2.45287
lclavicle -9.44351e-16 -6.04368e-15 1.70683e-31
lhumerus -17.2796 -18.9928 92.3047
lradius 34.3712 -0 0
lwrist -26.012 0 0
lhand -27.7908 33.6352 0.0714652
lfingers 7.12502 -0 0
lthumb -1.18391 63.6066 0.0690769
rclavicle -9.44351e-16 -6.04368e-15 1.70683e-31
rhumerus -22.0003 12.9292 -78.6929
rradius 60.2418 -0 0
rwrist -11.3391 0 0
rhand 11.8526 -21.1754 3.122
rfingers 7.12502 -0 0
rthumb 20.6799 -66.3212 -4.08445
104
root -1.5762 16.3372 -36.0288 3.80838 27.9963 1.05156
lfemur -13.5855 -1.88955 -11.3839
ltibia 41.834 -0 0
lfoot -20.9962 13.3394 -0.386608
ltoes -20.258 0 0
rfemur -30.185 -1.44528 13.2053
rtibia 45.8853 -0 0
rfoot -15.5523 1.18534 0.571416
rtoes -17.5374 0 0
lowerback 10.5559 1.46158 -4.67441
upperback -2.29325 1.47848 1.50656
thorax -8.33211 0.995482 4.17676
lowerneck -4.73286 -3.42109 -5.76479
upperneck 5.11709 -4.46351 4.84749
head 2.78399 -2.1852 2.44606
lclavicle -9.7239e-16 -6.01231e-15 1.71566e-31
lhumerus -17.1834 -19.1286 92.3194
lradius 34.4559 -0 0
lwrist -25.9668 0 0
lhand -27.7805 33.6709 0.0718351
lfingers 7.12502 -0 0
lthumb -1.17395 63.6423 0.0694344
rclavicle -9.7239e-16 -6.01231e-15 1.71566e-31
rhumerus -21.8903 13.0067 -78.6549
rradius 60.5091 -0 0
rwrist -11.488 0 0
rhand 12.2068 -21.1286 3.13938
rfingers 7.12502 -0 0
rthumb 20.8635 -66.4373 -4.10616
105
root -1.5628 16.3324 -36.0264 3.8191 28.2719 1.09293
lfemur -13.5416 -1.86891 -11.422
ltibia 41.8748 -0 0
lfoot -21.0274 13.4031 -0.388568
ltoes -20.2007 0 0
rfemur -30.2919 -1.46217 13.1921
rtibia 45.9389 -0 0
rfoot -15.4782 1.22496 0.574317
rtoes -17.5036 0 0
lowerback 10.5904 1.45177 -4.70096
upperback -2.28505 1.46063 1.5087
thorax -8.34095 0.988262 4.19798
lowerneck -4.73329 -3.41507 -5.75435
upperneck 5.12102 -4.45526 4.83172
head 2.7841 -2.18133 2.43925
lclavicle -1.00043e-15 -5.98094e-15 1.72434e-31
lhumerus -17.0872 -19.2644 92.334
lradius 34.5405 -0 0
lwrist -25.9215 0 0
lhand -27.7702 33.7066 0.0721986
lfingers 7.12502 -0 0
lthumb -1.164 63.6781 0.0697857
rclavicle -1.00043e-15 -5.98094e-15 1.72434e-31
rhumerus -21.7802 13.0841 -78.6168
rradius 60.7764 -0 0
rwrist -11.6368 0 0
rhand 12.5611 -21.0816 3.15647
rfingers 7.12502 -0 0
rthumb 21.0471 -66.5535 -4.12749
